<svg width="36" height="36" viewBox="0 0 36 36" fill="none" xmlns="http://www.w3.org/2000/svg">
<path fill-rule="evenodd" clip-rule="evenodd" d="M5.15507 26.4263C4.8526 25.9463 4.57644 25.4663 4.32 24.9863L1.12438 24.7956L0 20.6334L2.67616 18.8712C2.64329 18.3189 2.64329 17.76 2.66959 17.2077L0 15.4521L1.09808 11.2964L4.2937 11.0992C4.53699 10.5995 4.81315 10.1129 5.13534 9.64603L3.68219 6.79233L5.2011 5.26685L6.71342 3.74137L9.58027 5.16822C10.0471 4.85918 10.5205 4.58959 11.0268 4.33315L11.211 1.14411L15.36 0.0197262L17.1288 2.68932C17.6855 2.65425 18.2378 2.65425 18.7858 2.68932L20.5479 0L24.7101 1.11123L24.9008 4.30685C25.3962 4.55233 25.8784 4.8263 26.3474 5.12877L29.3655 3.85973L32.2521 6.73315L30.8318 9.6C31.1342 10.0603 31.4104 10.5403 31.6603 11.04L34.8625 11.2175L35.9868 15.3666L33.3107 17.1551C33.3458 17.6986 33.3479 18.2488 33.3173 18.8055L36 20.5677L34.8822 24.7167L31.6931 24.914C31.4696 25.3677 30.891 26.3277 30.8647 26.3671L32.3047 29.2208L29.2734 32.2652L26.4132 30.8384C25.9463 31.154 25.4532 31.4367 24.96 31.68L24.7825 34.869L20.6334 35.9934L18.8581 33.3238C18.2992 33.3567 17.7468 33.3633 17.2011 33.3304L15.4323 36L11.2833 34.9019L11.0795 31.7129C10.5863 31.4564 10.1129 31.1803 9.63288 30.8844L6.77918 32.3178L5.26027 30.8055L3.72822 29.28L5.15507 26.4263ZM25.3414 25.3019C29.3721 21.2515 29.3392 14.7025 25.2888 10.6784C21.2581 6.64767 14.7025 6.64767 10.6718 10.7047C6.62795 14.7616 6.63452 21.3107 10.6718 25.3348C14.7419 29.3655 21.291 29.3589 25.3414 25.3019Z" fill="#A8A8A8"/>
</svg>
