<svg width="195" height="79" viewBox="0 0 195 79" fill="none" xmlns="http://www.w3.org/2000/svg">
<path d="M32.4169 6.16918C32.4088 5.89965 32.3403 5.65519 31.8891 5.09732C31.1838 4.21977 30.4901 4.85913 29.9785 4.28872C29.6119 3.87502 29.4751 4.39528 29.1108 3.9565C28.4995 3.22312 27.858 3.06015 27.2362 2.52736C26.2908 1.71249 25.3755 0.0388775 24.4104 0.00126839C24.1366 -0.0112686 23.8628 0.1141 23.5914 0.302145C23.5349 0.339754 23.4785 0.381542 23.422 0.427509C23.219 0.584215 23.0172 0.772261 22.8165 0.960306C21.9592 1.75637 21.3177 2.27663 20.7841 2.84703C19.2622 4.4705 18.6694 3.18551 17.6416 4.01918C17.1266 4.43289 16.7449 4.57079 16.5779 4.92807C16.5257 5.0409 16.4955 5.17253 16.4886 5.34177C16.4828 5.49848 16.4978 5.74921 16.9769 7.10941C17.2445 7.86995 17.6169 8.7078 18.094 9.62296C18.4246 10.2623 18.775 11.0396 19.1357 11.9923C19.6566 13.3713 20.0197 14.6501 20.4582 16.192C20.7053 17.0633 20.9199 17.8844 21.3479 19.5267C21.6808 20.8054 21.8398 21.4511 22.023 22.2973C22.1843 23.0494 22.2086 23.25 22.3919 24.1088C22.6495 25.3248 22.8733 26.265 23.0636 27.0611C23.9081 30.5901 24.1308 30.7593 24.2839 30.7217C24.3079 30.7134 24.3315 30.6987 24.3547 30.6779C24.5322 30.5274 24.6981 29.957 24.9962 28.9416C25.3558 27.713 25.3372 27.3181 25.7084 25.9391C26.0646 24.6165 26.1284 24.8171 26.5089 23.4005C26.8035 22.3035 26.8151 21.9964 27.0935 20.9245C27.3789 19.8276 27.5946 19.2697 27.9322 18.342C28.5377 16.681 28.2037 17.4833 29.3822 14.1423C30.2511 11.6852 30.685 10.4441 30.8566 10.0555C31.6002 8.36932 32.4459 7.02793 32.4169 6.16918Z" fill="#F4D192"/>
<path d="M32.4163 6.17004C32.4082 5.90051 32.3397 5.65605 31.8885 5.09818C31.1832 4.22063 30.4895 4.85999 29.9779 4.28958C29.6114 3.87588 29.4745 4.39614 29.1102 3.95736C28.4989 3.22398 27.8574 3.06101 27.2356 2.52822C27.0802 2.39031 26.9271 2.23361 26.7728 2.07063C25.9886 1.21189 25.2172 0.0334682 24.4098 0.00212669C24.136 -0.0104103 23.8623 0.114958 23.5908 0.303003C23.8472 0.359417 24.1047 0.340609 24.3553 0.541191C24.7427 0.854601 25.0954 1.682 25.4376 2.50941C25.7276 3.20518 26.0153 3.91976 26.3041 4.62806C26.5048 5.12325 26.7241 5.71873 26.7751 6.67776C26.8459 7.98782 26.5721 9.12236 26.4456 10.3509C26.3088 11.661 26.1266 12.0183 26.0385 13.3973C25.8923 15.7102 25.4306 17.4591 25.2555 19.7407C25.1743 20.7875 25.1557 21.9346 25.0258 22.8873C24.9098 23.7398 24.7137 24.3729 24.6093 25.2504C24.4284 26.7924 24.5513 28.6039 24.4086 30.1773C24.3947 30.3277 24.375 30.5032 24.3541 30.6787C24.5316 30.5283 24.6975 29.9579 24.9956 28.9424C25.3552 27.7138 25.3367 27.319 25.7079 25.94C26.064 24.6174 26.1278 24.8179 26.5083 23.4013C26.8029 22.3044 26.8145 21.9973 27.0929 20.9254C27.3783 19.8285 27.5941 19.2706 27.9316 18.3429C28.5372 16.6818 28.2031 17.4841 29.3817 14.1432C30.2505 11.6861 30.6844 10.445 30.8561 10.0563C31.1878 9.30414 31.7504 8.18213 31.9778 7.69948C32.2609 7.104 32.4325 6.64642 32.4163 6.17004Z" fill="#EAC088"/>
<path d="M23.4218 0.42725C23.2188 0.583955 23.0169 0.772001 22.8163 0.960048C21.959 1.75611 21.3175 2.27637 20.7839 2.84677C19.2619 4.47024 18.6692 3.18525 17.6414 4.01893C17.1263 4.43263 16.7447 4.57053 16.5776 4.92781C16.6043 4.95916 16.631 4.9905 16.6565 5.01557C17.0521 5.46061 17.9488 5.22869 18.356 5.423C18.6518 5.56717 18.9058 6.35697 19.1436 7.11542C19.5226 8.32727 19.9011 9.53912 20.2793 10.751C20.3489 9.01468 20.0044 7.55419 19.7758 6.08117C19.6807 5.47315 19.8304 5.68 19.973 5.2663C20.0276 5.10959 20.0972 5.08452 20.161 5.02184C20.4568 4.7147 20.6702 3.40465 20.973 3.37331C21.3163 3.34823 21.6435 4.9905 21.9451 4.30099C22.1365 3.86222 22.1701 2.72768 22.336 2.1322C22.5587 1.32987 22.9149 1.81252 23.177 1.26092C23.271 1.06033 23.3464 0.746928 23.4218 0.42725Z" fill="#EAC088"/>
<path d="M26.3166 15.1775C26.2319 15.8357 26.102 16.4437 25.9976 17.0454C25.8386 17.9669 25.6728 19.1453 25.7911 20.167C25.9059 19.7533 26.015 19.3145 26.1263 18.882C26.4395 17.6722 26.769 16.5314 27.0973 15.3969C27.2655 14.8139 27.436 14.231 27.6274 13.7922C27.8003 13.4036 27.9893 13.1341 28.1517 12.6702C28.3803 12.0246 28.545 11.0342 28.7735 10.4011C28.9638 9.87461 29.2016 9.57373 29.3303 8.78394C29.3547 8.63977 29.3744 8.46426 29.3663 8.28875C29.3605 8.16339 29.3384 8.05056 29.3141 7.96907C29.2016 7.58044 29.0334 7.66193 28.9011 7.91266C28.7689 8.16339 28.654 8.56455 28.5183 8.79021C28.2411 9.25405 28.2074 8.65857 27.7515 9.41703C27.4 9.9937 27.2179 11.6234 26.921 12.6075C26.8038 12.9899 26.6704 13.272 26.5544 13.6543C26.4094 13.9615 26.3827 14.6447 26.3166 15.1775Z" fill="#F4D192"/>
<path d="M23.9369 28.1653C24.0355 27.9584 24.0877 27.4946 24.1156 27.0433C24.191 25.8586 24.1562 24.5987 24.1283 23.3764C24.1109 22.6179 24.1005 21.7905 24.2014 21.1511C24.2374 20.9192 24.2872 20.7249 24.322 20.493C24.416 19.8536 24.387 19.0388 24.3557 18.3054C24.3058 17.1708 24.2292 15.8796 23.9845 15.3781C23.7269 14.8516 23.4265 15.4847 23.1864 16.1429C23.1342 16.2808 23.0808 16.4249 23.0205 16.4751C22.9347 16.5378 22.8476 16.3873 22.7699 16.2118C22.5797 15.7981 22.4057 15.2528 22.2572 14.6009C22.1656 14.1997 22.0542 13.7171 21.9254 13.8299C21.7561 13.9741 21.6865 15.0522 21.5148 15.0522C21.4243 15.0522 21.3547 14.7388 21.2828 14.5006C21.1679 14.1182 21.0218 13.9051 20.8744 13.9051C20.8675 14.4128 20.9475 14.8641 21.0264 15.2528C21.4197 17.2273 21.8674 19.0137 22.3546 20.5682C22.5542 21.195 22.7618 21.7968 22.9277 22.5803C23.1087 23.4265 23.2351 24.4482 23.3581 25.4637C23.4427 26.1532 23.6365 28.7921 23.9369 28.1653Z" fill="#F7DE9C"/>
<path d="M19.4842 11.5156C19.5654 11.6973 19.6466 11.8917 19.736 11.9982C19.765 12.0358 20.0909 12.1048 20.0805 12.0421C19.961 11.2962 19.7603 10.8887 19.591 10.3497C19.4622 9.94224 19.3462 9.44078 19.1989 9.16498C19.1003 8.9832 18.9924 8.91426 18.8915 8.76382C18.7209 8.51309 18.5736 8.05551 18.417 7.67315C18.1896 7.11528 17.453 5.89298 17.1943 5.6924C17.2257 6.28161 17.3103 6.8144 17.4287 7.15915C17.5249 7.44749 18.127 8.4316 18.236 8.61965C18.4019 8.90172 18.5574 9.27781 18.7117 9.6539C18.9692 10.2745 19.2232 10.9263 19.4842 11.5156Z" fill="#F7DE9C"/>
<path d="M32.417 6.16941C32.4088 5.89988 32.3404 5.65542 31.8892 5.09755C31.1839 4.22 30.4902 4.85936 29.9786 4.28895C29.612 3.87525 29.4751 4.39551 29.1109 3.95674C28.4996 3.22336 27.8581 3.06039 27.2363 2.52759C27.0808 2.38969 26.9277 2.23298 26.7734 2.07001C26.9904 2.43356 27.22 2.69056 27.4091 3.26097C27.4718 3.45528 27.5298 3.68094 27.5994 3.81257C27.7374 4.07584 27.8987 3.9442 28.0471 4.06957C28.1562 4.16359 28.256 4.38924 28.3534 4.6149C28.4079 4.74026 28.4682 4.8907 28.4856 5.14769C28.5088 5.49871 28.4381 5.82466 28.3812 6.10046C28.2362 6.78997 28.1399 7.74273 28.1933 8.63281C28.619 7.82421 28.8313 5.86227 29.2571 5.05367C29.3603 4.85309 29.4705 4.65251 29.583 4.72146C29.7628 4.83429 29.8869 5.74944 29.8185 6.45775C29.8011 6.63953 29.7767 6.89025 29.815 7.00308C29.8289 7.04069 29.8452 7.04696 29.8614 7.04696C30.1306 7.0595 30.337 5.9751 30.6015 5.75571C30.7477 5.63035 30.8973 5.78705 31.0423 5.93749C31.3289 6.24463 31.881 6.00017 32.1676 6.30104C32.2058 6.82757 32.0945 7.32276 31.9912 7.66124C31.9874 7.67378 31.9831 7.68632 31.9785 7.69886C32.2615 7.10338 32.4332 6.6458 32.417 6.16941Z" fill="#E3B17A"/>
<rect x="20.5596" y="33.6816" width="6.92483" height="9.01737" fill="#D9D9D9"/>
<rect x="22.043" y="30.1729" width="4.12192" height="3.67374" fill="#555555"/>
<path d="M19.9963 28.4741L18.9068 28.627L15.386 30.5235L14.0655 30.7657C14.7561 32.7866 16.0619 40.3605 16.6285 43.8948L19.1546 43.7508L19.1546 49.317C18.4475 49.8762 17.7895 50.1783 17.4936 50.1735L17.3048 54.3572L17.0737 54.4465C17.7259 60.6286 18.9168 73.3943 18.4627 74.9996C18.0085 76.6049 17.4249 75.758 17.1898 75.134C16.1891 43.9931 13.4998 29.1076 12.2802 25.5575L13.094 24.4388L19.0369 24.2873L19.2426 24.8334L19.6865 24.8406L19.9963 28.4741Z" fill="#D9D9D9"/>
<path d="M18.4623 74.9989C18.0081 76.6042 17.4245 75.7574 17.1894 75.1333C16.9374 67.2903 16.5782 60.4784 16.1624 54.619L17.0733 54.4458C17.7255 60.6279 18.9164 73.3936 18.4623 74.9989Z" fill="#004993"/>
<path d="M28.2357 76H19.1561L19.126 79H28.2357V76Z" fill="#323232"/>
<path d="M19.1577 77.5993L19.1577 42.6152H28.7206L28.4733 54.1374C27.7478 55.4065 27.8412 56.3361 27.9786 56.6422C28.7041 57.8446 28.6107 58.8131 28.4733 59.1471C27.6818 60.483 27.7038 61.2066 27.8138 61.4014C28.2534 62.125 28.803 63.4888 28.2259 64.8247C27.7342 65.963 27.8138 66.8007 28.0611 67.1625C28.5887 68.6988 28.3908 69.5838 28.2259 69.8343C27.3026 70.7695 27.8412 72.2835 28.2259 72.9236V77.5993C24.137 80.1375 20.4767 78.6569 19.1577 77.5993Z" fill="#C3B6AD"/>
<path d="M49.8729 53.6004C45.6596 53.6004 42.1663 52.2137 39.3929 49.4404C36.6463 46.6404 35.2729 43.1604 35.2729 39.0004C35.2729 34.8404 36.6463 31.3737 39.3929 28.6004C42.1663 25.8004 45.6596 24.4004 49.8729 24.4004C52.4063 24.4004 54.7529 25.0004 56.9129 26.2004C59.0729 27.4004 60.7663 29.0137 61.993 31.0404L55.7929 34.6004C55.2596 33.6137 54.4596 32.8404 53.393 32.2804C52.3529 31.6937 51.1796 31.4004 49.8729 31.4004C47.6329 31.4004 45.8196 32.1071 44.4329 33.5204C43.0729 34.9071 42.3929 36.7337 42.3929 39.0004C42.3929 41.2671 43.0729 43.1071 44.4329 44.5204C45.8196 45.9071 47.6329 46.6004 49.8729 46.6004C51.1796 46.6004 52.3529 46.3204 53.393 45.7604C54.4596 45.1737 55.2596 44.3737 55.7929 43.3604L61.993 46.9604C60.7663 49.0137 59.0729 50.6404 56.9129 51.8404C54.7796 53.0137 52.4329 53.6004 49.8729 53.6004Z" fill="#323232"/>
<path d="M83.9829 33.0004V53.0004H77.3429V39.2804H71.463V53.0004H64.8229V33.0004H83.9829Z" fill="#323232"/>
<path d="M100.511 33.0004H107.871L101.111 52.4004C99.0308 58.4271 94.9774 61.2937 88.9508 61.0004V54.7604C90.3374 54.7604 91.3908 54.6137 92.1108 54.3204C92.8308 54.0271 93.4041 53.4804 93.8308 52.6804L85.9108 33.0004H93.2308L97.3508 44.6004L100.511 33.0004Z" fill="#323232"/>
<path d="M126.735 33.0004V39.3604H121.015V53.0004H114.375V39.3604H108.575V33.0004H126.735Z" fill="#323232"/>
<path d="M141.484 33.0004H148.124V53.0004H141.484V46.1204H135.604V53.0004H128.964V33.0004H135.604V39.8804H141.484V33.0004Z" fill="#323232"/>
<path d="M166.211 33.0004H171.331V53.0004H164.851V43.6404L157.091 53.0004H151.971V33.0004H158.451V42.3604L166.211 33.0004Z" fill="#323232"/>
<path d="M194.935 53.0004H187.495L181.815 44.4804V53.0004H175.175V33.0004H181.815V41.3604L186.975 33.0004H194.655L187.935 43.0004L194.935 53.0004Z" fill="#323232"/>
</svg>
