<svg width="200" height="69" viewBox="0 0 200 69" fill="none" xmlns="http://www.w3.org/2000/svg">
<path d="M28.4831 39.9541V68.3992C24.7889 68.3176 16.2761 67.8687 8.24512 64.2774C4.22964 62.5225 1.65973 60.7268 0 59.2168V39.9541H28.4831Z" fill="#981A26"/>
<path d="M0 49.9117C5.88937 45.5857 13.0102 43.4636 20.6128 42.4841C20.4522 45.4633 21.63 48.1976 21.523 51.1768C17.7216 51.7074 13.5991 52.6052 9.58361 54.0744C4.92565 55.8292 1.92743 57.7474 0 59.2165C0 56.1149 0 53.0133 0 49.9117ZM0 29.0982C6.31769 24.9355 13.9739 23.1398 22.0584 22.3644C22.5402 28.9757 21.0946 35.8727 20.6128 42.4841C13.0102 43.4636 5.88937 45.5857 0 49.9117C0 42.9739 0 36.036 0 29.0982ZM2.67699 12.1208C8.3522 8.08055 15.5265 6.44811 23.1292 5.83595C20.6128 11.223 21.6836 16.8141 22.0584 22.3644C13.9739 23.1398 6.31769 24.9355 0 29.0982C0 26.4591 0 23.8199 0 21.1808C0 17.9568 0.963715 14.8552 2.67699 12.1208ZM8.13803 6.20326C13.1172 2.40785 20.0239 0.0408109 27.6265 0C25.6991 1.71406 24.1999 3.67297 23.1292 5.83595C15.5265 6.44811 8.3522 8.08055 2.67699 12.1208C4.01548 9.91704 5.88937 7.91731 8.13803 6.20326ZM20.6128 42.4841C29.0185 41.3414 37.9061 41.5863 46.3119 41.6271C65.8538 41.7495 85.3423 41.7903 104.831 41.7903C103.831 44.6471 102.868 47.5038 101.94 50.3606C78.168 50.3606 54.3963 50.3606 30.6247 50.3606C28.2154 50.4422 25.003 50.6463 21.523 51.1768C21.63 48.1976 20.4522 45.4633 20.6128 42.4841ZM22.0584 22.3644C35.9251 21.0584 50.3809 22.1603 64.3547 22.2827C79.9348 22.446 95.4613 22.5684 111.041 22.65C111.113 22.8949 111.184 23.1261 111.256 23.3438C109.221 29.5062 107.026 35.6687 104.831 41.7903C85.3423 41.7903 65.8538 41.7495 46.3119 41.6271C37.9061 41.5863 29.0185 41.3414 20.6128 42.4841C21.0946 35.8727 22.5402 28.9757 22.0584 22.3644ZM23.1292 5.83595C32.2309 5.14216 41.9751 5.9584 50.4879 6.08083C68.9592 6.24407 87.4839 6.52973 106.009 6.65216C106.758 12.1616 109.114 17.3854 111.041 22.65C95.4613 22.5684 79.9348 22.446 64.3547 22.2827C50.3809 22.1603 35.9251 21.0584 22.0584 22.3644C21.6836 16.8141 20.6128 11.223 23.1292 5.83595ZM27.6265 0C27.6622 0 27.7157 0 27.7871 0C53.8431 0 79.8812 0 105.902 0C105.634 2.08135 105.687 4.32595 106.009 6.65216C87.4839 6.52973 68.9592 6.24407 50.4879 6.08083C41.9751 5.9584 32.2309 5.14216 23.1292 5.83595C24.1999 3.67297 25.6991 1.71406 27.6265 0ZM104.831 41.7903C136.044 41.7903 168.061 41.7903 199.275 41.7495C199.275 45.5 199.275 46.5 199.275 50C168.686 50 132.493 50.3606 101.94 50.3606C102.868 47.5038 103.831 44.6471 104.831 41.7903ZM111.041 22.65C143.808 22.5276 166.509 23.6632 199.275 23.5C199.275 24.1562 199.275 25 199.275 25.5C199.275 32.9319 199.275 34.5 199.275 41.7495C168.061 41.7903 136.044 41.7903 104.831 41.7903C107.026 35.6687 109.221 29.5062 111.256 23.3438C111.184 23.1261 111.113 22.8949 111.041 22.65ZM106.009 6.65216C136.526 6.61135 168.704 7.08162 199.275 7C199.275 14.1438 199.275 17.6562 199.275 23.5C166.509 23.6632 143.808 22.5276 111.041 22.65C109.114 17.3854 106.758 12.1616 106.009 6.65216ZM105.902 0C135.134 0 170.006 0 199.275 0C199.275 3 199.275 4.5 199.275 7C168.704 7.08162 136.526 6.61135 106.009 6.65216C105.687 4.32595 105.634 2.08135 105.902 0Z" fill="url(#paint0_linear_423_234)"/>
<defs>
<linearGradient id="paint0_linear_423_234" x1="0" y1="59.2165" x2="13.8138" y2="19.497" gradientUnits="userSpaceOnUse">
<stop stop-color="#B32B34"/>
<stop offset="1" stop-color="#DD2839"/>
</linearGradient>
</defs>
</svg>
