<svg width="47" height="39" viewBox="0 0 47 39" fill="none" xmlns="http://www.w3.org/2000/svg">
<path d="M44.7105 18.8392C45.1966 17.6578 45.4526 16.3944 45.4647 15.1169C45.4647 12.5359 44.4394 10.0607 42.6144 8.23566C40.7894 6.41063 38.3141 5.38535 35.7331 5.38535H35.2141C34.7971 3.85046 33.8902 2.49381 32.6312 1.52179C31.3723 0.54977 29.8303 0.0155984 28.2398 0.000545513C27.1608 -0.0128725 26.0931 0.221405 25.1188 0.685356C24.1445 1.14931 23.2896 1.83057 22.6199 2.67673C21.689 2.48393 20.7402 2.3915 19.7896 2.401C19.3598 2.401 18.9381 2.401 18.5245 2.45777C15.3236 2.74121 12.3362 4.18301 10.1229 6.51259L10.0337 6.59368C9.84717 6.80453 9.66065 7.01538 9.49035 7.23434C9.38626 7.34758 9.28878 7.46672 9.1984 7.59117C9.08523 7.7342 8.97966 7.88308 8.88212 8.0372C8.72804 8.25616 8.57396 8.47512 8.43609 8.70219C8.43609 8.76707 8.355 8.83194 8.32256 8.89682C7.48353 10.2906 6.91921 11.8322 6.66008 13.4382V13.5031C6.66008 13.6977 6.5952 13.8843 6.57087 14.0708C4.6881 14.3025 2.96353 15.2404 1.74581 16.695C0.528083 18.1495 -0.0919502 20.0122 0.0110505 21.9063C0.114051 23.8005 0.932403 25.5849 2.30067 26.8989C3.66893 28.2128 5.48504 28.9582 7.38184 28.9844H15.5564C15.7714 28.9844 15.9777 28.899 16.1298 28.7469C16.2819 28.5948 16.3673 28.3885 16.3673 28.1734C16.3673 27.9584 16.2819 27.7521 16.1298 27.6C15.9777 27.4479 15.7714 27.3625 15.5564 27.3625H7.39806C5.88094 27.3163 4.44085 26.6836 3.38066 25.5974C2.32047 24.5112 1.7228 23.0562 1.71335 21.5384C1.70389 20.0206 2.28339 18.5583 3.32997 17.459C4.37655 16.3597 5.80865 15.7091 7.32507 15.644H8.06305L8.11171 14.9142C8.33602 11.9034 9.71689 9.09622 11.965 7.08093C14.2131 5.06564 17.1539 3.99862 20.1712 4.10346C23.1885 4.20831 26.0482 5.47687 28.151 7.64333C30.2538 9.8098 31.4365 12.706 31.4513 15.7251C31.4481 16.9131 31.2677 18.0939 30.916 19.2285C30.8647 19.4284 30.8915 19.6403 30.9909 19.8211C31.0903 20.0019 31.255 20.138 31.4513 20.2017C31.5272 20.2267 31.6065 20.2404 31.6864 20.2422C31.8663 20.2499 32.0437 20.1975 32.1905 20.0932C32.3374 19.989 32.4453 19.8388 32.4974 19.6664C32.8977 18.3769 33.1027 17.0348 33.1056 15.6846C33.0999 15.033 33.0484 14.3826 32.9515 13.7383C33.7949 13.8122 34.6185 14.0346 35.3844 14.3952C36.9149 15.1515 38.0857 16.4805 38.6428 18.0942C39.1999 19.708 39.0986 21.4762 38.3607 23.0157C38.3142 23.1125 38.2873 23.2176 38.2818 23.3248C38.2762 23.432 38.2919 23.5393 38.3282 23.6404C38.3644 23.7415 38.4203 23.8344 38.4927 23.9137C38.5651 23.993 38.6525 24.0572 38.7499 24.1024C38.8599 24.1506 38.9786 24.1754 39.0986 24.1754C39.2515 24.175 39.4011 24.1313 39.5303 24.0495C39.6594 23.9678 39.7628 23.8511 39.8285 23.7131C40.7491 21.7844 40.8711 19.5702 40.168 17.552C39.4649 15.5337 37.9935 13.8747 36.0737 12.9354C34.9838 12.4158 33.794 12.1391 32.5866 12.1245C32.0103 10.0871 30.9573 8.21626 29.5147 6.66649C28.0721 5.11672 26.2813 3.93258 24.2904 3.21196C24.8032 2.69548 25.4136 2.28612 26.086 2.00767C26.7585 1.72923 27.4796 1.58726 28.2074 1.59004C29.5569 1.60177 30.8581 2.09389 31.8776 2.97816C32.8971 3.86242 33.5682 5.08097 33.7706 6.41527L33.9085 7.29922L34.7681 7.08026C35.0829 7.0172 35.4043 6.99269 35.725 7.00727C36.79 7.00727 37.8445 7.21704 38.8285 7.62458C39.8124 8.03213 40.7064 8.62948 41.4594 9.38253C42.2125 10.1356 42.8098 11.0296 43.2174 12.0135C43.6249 12.9974 43.8347 14.0519 43.8347 15.1169C43.8138 16.3977 43.5092 17.6579 42.9426 18.8068L42.6263 19.5042L43.2994 19.8692C44.066 20.294 44.6717 20.9589 45.0233 21.7617C45.375 22.5644 45.4532 23.4604 45.2458 24.3119C45.0385 25.1634 44.5571 25.9232 43.8757 26.4744C43.1944 27.0256 42.3508 27.3376 41.4748 27.3625H23.4308C23.2157 27.3625 23.0095 27.4479 22.8574 27.6C22.7053 27.7521 22.6199 27.9584 22.6199 28.1734C22.6199 28.3885 22.7053 28.5948 22.8574 28.7469C23.0095 28.899 23.2157 28.9844 23.4308 28.9844H41.5153C42.6874 28.9562 43.8213 28.5621 44.7582 27.8574C45.6951 27.1527 46.3882 26.1725 46.7404 25.0543C47.0926 23.9361 47.0863 22.7357 46.7223 21.6212C46.3583 20.5067 45.6549 19.534 44.7105 18.8392Z" fill="#323232"/>
<path d="M32.076 31.0695C31.8759 30.9927 31.6535 30.9982 31.4575 31.0848C31.2615 31.1714 31.1077 31.3321 31.0298 31.5318L29.7809 34.7756C29.7041 34.9757 29.7096 35.198 29.7962 35.394C29.8829 35.5901 30.0435 35.7438 30.2432 35.8218C30.3357 35.8601 30.435 35.8794 30.5351 35.8785C30.7008 35.8791 30.8627 35.8288 30.999 35.7346C31.1353 35.6403 31.2394 35.5066 31.2974 35.3514L32.5463 32.1075C32.6202 31.9074 32.6123 31.6863 32.5242 31.492C32.4362 31.2977 32.2751 31.1459 32.076 31.0695Z" fill="#323232"/>
<path d="M25.5393 31.0694C25.4397 31.0316 25.3337 31.0138 25.2272 31.017C25.1207 31.0201 25.0159 31.0442 24.9188 31.0879C24.8217 31.1316 24.7341 31.194 24.661 31.2715C24.588 31.3491 24.531 31.4402 24.4932 31.5398L22.19 37.6869C22.1524 37.787 22.135 37.8935 22.1387 38.0004C22.1424 38.1072 22.1672 38.2123 22.2117 38.3095C22.2561 38.4067 22.3194 38.4942 22.3978 38.5669C22.4762 38.6396 22.5682 38.6961 22.6685 38.7331C22.7686 38.7707 22.8751 38.7881 22.9819 38.7844C23.0888 38.7807 23.1939 38.7559 23.2911 38.7114C23.3883 38.667 23.4758 38.6037 23.5485 38.5253C23.6212 38.4469 23.6776 38.3549 23.7146 38.2546L26.0178 32.1075C26.0912 31.9063 26.0821 31.6843 25.9925 31.4898C25.9029 31.2954 25.7399 31.1443 25.5393 31.0694Z" fill="#323232"/>
<path d="M11.607 31.06C11.4049 30.9869 11.182 30.9971 10.9873 31.0884C10.7927 31.1796 10.6422 31.3444 10.569 31.5465L8.36318 37.6936C8.29015 37.8958 8.30037 38.1187 8.39161 38.3134C8.48285 38.508 8.64764 38.6585 8.84976 38.7317C8.93816 38.7638 9.03146 38.7802 9.12549 38.7803C9.29216 38.7803 9.45475 38.7288 9.59115 38.6331C9.72755 38.5373 9.83113 38.4018 9.8878 38.2451L12.1261 32.098C12.1615 31.9958 12.1761 31.8876 12.1691 31.7797C12.1621 31.6718 12.1336 31.5664 12.0852 31.4697C12.0368 31.3729 11.9696 31.2869 11.8875 31.2165C11.8054 31.1462 11.71 31.0929 11.607 31.06Z" fill="#323232"/>
<path d="M38.1174 31.0694C38.0179 31.0316 37.9118 31.0138 37.8053 31.017C37.6989 31.0201 37.5941 31.0442 37.4969 31.0879C37.3998 31.1316 37.3122 31.194 37.2392 31.2715C37.1661 31.3491 37.1091 31.4402 37.0713 31.5398L34.7681 37.6869C34.7305 37.787 34.7131 37.8935 34.7168 38.0004C34.7205 38.1072 34.7453 38.2123 34.7898 38.3095C34.8342 38.4067 34.8975 38.4942 34.9759 38.5669C35.0543 38.6396 35.1463 38.6961 35.2466 38.7331C35.3376 38.7661 35.4337 38.7826 35.5305 38.7817C35.6948 38.7806 35.8549 38.7296 35.9896 38.6355C36.1242 38.5413 36.2271 38.4085 36.2847 38.2546L38.5959 32.1075C38.6693 31.9063 38.6603 31.6843 38.5706 31.4898C38.481 31.2954 38.3181 31.1443 38.1174 31.0694Z" fill="#323232"/>
<path d="M22.531 23.0728C22.5336 22.8507 22.4509 22.6362 22.3 22.4732C22.1492 22.3103 21.9416 22.2114 21.72 22.1969H16.0433L19.8062 13.8278C19.8498 13.7294 19.8719 13.6229 19.8709 13.5154C19.87 13.4078 19.8461 13.3017 19.8008 13.2042C19.7554 13.1066 19.6898 13.0199 19.6082 12.9498C19.5266 12.8797 19.431 12.8279 19.3277 12.7978C19.2289 12.7463 19.1205 12.7158 19.0093 12.708C18.8982 12.7003 18.7866 12.7155 18.6816 12.7528C18.5766 12.7901 18.4804 12.8486 18.399 12.9247C18.3176 13.0008 18.2528 13.0929 18.2086 13.1952L13.9105 22.7565C13.8296 22.9687 13.8343 23.2039 13.9235 23.4127C14.0128 23.6215 14.1797 23.7875 14.3889 23.8756C14.4895 23.9154 14.5971 23.9347 14.7052 23.9324H20.4631L16.319 34.7993C16.2481 34.9994 16.2584 35.2194 16.3479 35.412C16.4374 35.6046 16.5988 35.7544 16.7975 35.8292C17.0085 35.9098 17.2427 35.9048 17.4501 35.8155C17.6576 35.7261 17.822 35.5594 17.9085 35.3507L22.4175 23.4945C22.4894 23.3653 22.5284 23.2205 22.531 23.0728Z" fill="#FD6A22"/>
</svg>
