<svg width="49" height="51" viewBox="0 0 49 51" fill="none" xmlns="http://www.w3.org/2000/svg">
<path d="M19.3994 20.5033C15.5956 20.941 13.9217 20.7916 13.5602 20.6621C12.7727 19.5467 11.7751 19.5738 11.3747 19.7268C11.073 24.1625 10.9872 27.881 11.0015 30.85M19.3994 20.5033L19.2659 14.6792C19.0657 14.4674 18.6119 14.0579 18.3984 14.1144C18.1848 14.1709 18.087 12.7496 18.0647 12.0318C18.2927 11.9259 19.1124 11.7071 20.5672 11.6789C21.3842 11.663 25.1863 11.6093 29.2976 11.5527M19.3994 20.5033L25.6567 25.9954" stroke="#323232" stroke-width="1.3" stroke-linecap="round" stroke-linejoin="round"/>
<path d="M19.3994 41.1969C15.5956 40.7592 13.9217 40.9086 13.5602 41.038C12.7727 42.1535 11.7751 42.1264 11.3747 41.9734C11.073 37.5377 10.9872 33.8192 11.0015 30.8502M19.3994 41.1969L19.2659 47.021C19.0657 47.2328 18.6119 47.6423 18.3984 47.5858C18.1848 47.5293 18.087 48.9506 18.0647 49.6684C18.2927 49.7743 19.1124 49.9931 20.5672 50.0213C21.3842 50.0372 25.1863 50.0909 29.2976 50.1475M19.3994 41.1969L25.6567 35.7048" stroke="#323232" stroke-width="1.3" stroke-linecap="round" stroke-linejoin="round"/>
<path d="M39.6006 20.5033C43.4044 20.941 45.0783 20.7916 45.4398 20.6621C46.2273 19.5467 47.2249 19.5738 47.6253 19.7268C47.927 24.1625 48.0128 27.881 47.9985 30.85M39.6006 20.5033L39.7341 14.6792C39.9343 14.4674 40.3881 14.0579 40.6016 14.1144C40.8152 14.1709 40.913 12.7496 40.9353 12.0318C40.7073 11.9259 39.8876 11.7071 38.4328 11.6789C37.6158 11.663 33.8137 11.6093 29.7024 11.5527M39.6006 20.5033L33.3433 25.9954" stroke="#323232" stroke-width="1.3" stroke-linecap="round" stroke-linejoin="round"/>
<path d="M39.6006 41.1969C43.4044 40.7592 45.0783 40.9086 45.4398 41.038C46.2273 42.1535 47.2249 42.1264 47.6253 41.9734C47.927 37.5377 48.0128 33.8192 47.9985 30.8502M39.6006 41.1969L39.7341 47.021C39.9343 47.2328 40.3881 47.6423 40.6016 47.5858C40.8152 47.5293 40.913 48.9506 40.9353 49.6684C40.7073 49.7743 39.8876 49.9931 38.4328 50.0213C37.6158 50.0372 33.8137 50.0909 29.7024 50.1475M39.6006 41.1969L33.3433 35.7048" stroke="#323232" stroke-width="1.3" stroke-linecap="round" stroke-linejoin="round"/>
<line x1="29.5" y1="-2.18557e-08" x2="29.5" y2="11" stroke="#FD6A22"/>
<line x1="-4.37114e-08" y1="31" x2="11" y2="31" stroke="#A8A8A8"/>
<path d="M29.5 27L32.3868 22L26.6132 22L29.5 27ZM29 12L29 12.9375L30 12.9375L30 12L29 12ZM29 14.8125L29 16.6875L30 16.6875L30 14.8125L29 14.8125ZM29 18.5625L29 20.4375L30 20.4375L30 18.5625L29 18.5625ZM29 22.3125L29 24.1875L30 24.1875L30 22.3125L29 22.3125Z" fill="#FD6A22"/>
<path d="M27 31L22 28.1132L22 33.8868L27 31ZM12 31.5L12.9375 31.5L12.9375 30.5L12 30.5L12 31.5ZM14.8125 31.5L16.6875 31.5L16.6875 30.5L14.8125 30.5L14.8125 31.5ZM18.5625 31.5L20.4375 31.5L20.4375 30.5L18.5625 30.5L18.5625 31.5ZM22.3125 31.5L24.1875 31.5L24.1875 30.5L22.3125 30.5L22.3125 31.5Z" fill="#A8A8A8"/>
</svg>
