<svg width="48" height="30" viewBox="0 0 48 30" fill="none" xmlns="http://www.w3.org/2000/svg">
<path d="M1 3.5C7.16667 9.83333 28.5 19 46 3.5" stroke="#FD6A22" stroke-width="2" stroke-dasharray="5 5"/>
<line x1="0.65" y1="3.65" x2="0.649999" y2="28.35" stroke="#323232" stroke-width="1.3" stroke-linecap="round"/>
<path d="M46.5 3L46.5 28.5" stroke="#323232" stroke-width="1.3" stroke-linecap="round"/>
<path d="M23.5524 5.27037H23.542L23.5316 5.2707C16.9433 5.4814 11.0882 5.25765 6.89234 4.7721C4.78966 4.52877 3.1298 4.22257 2.00956 3.88219C1.44476 3.71058 1.05585 3.54159 0.821654 3.39074C0.77678 3.36183 0.742149 3.33672 0.715584 3.3156C0.744731 3.29125 0.783856 3.26166 0.836015 3.22705C1.07773 3.06669 1.47544 2.88531 2.04776 2.69697C3.18344 2.32322 4.86088 1.96826 6.97467 1.66228C11.1932 1.05162 17.0491 0.65 23.5524 0.65C30.064 0.65 35.8988 0.930389 40.0954 1.42062C42.1986 1.66631 43.8632 1.96173 44.989 2.29162C45.5568 2.45798 45.9475 2.6219 46.1827 2.76927C46.2209 2.79319 46.2516 2.81442 46.2762 2.83283C46.2494 2.85378 46.2152 2.87836 46.1717 2.90641C45.9317 3.06093 45.5357 3.23424 44.964 3.41238C43.83 3.76575 42.1557 4.09295 40.0474 4.37081C35.8402 4.9253 30.008 5.27037 23.5524 5.27037ZM0.63357 3.23498C0.63363 3.23497 0.634185 3.23581 0.635058 3.2375C0.633948 3.23583 0.633511 3.23498 0.63357 3.23498ZM46.3687 2.91885C46.3686 2.91886 46.3678 2.91775 46.3666 2.91546C46.3681 2.91771 46.3688 2.91885 46.3687 2.91885ZM46.3655 2.74716C46.3661 2.74598 46.3665 2.74539 46.3666 2.7454C46.3666 2.7454 46.3663 2.74599 46.3655 2.74716Z" stroke="#323232" stroke-width="1.3"/>
</svg>
