<svg width="68" height="36" viewBox="0 0 68 36" fill="none" xmlns="http://www.w3.org/2000/svg">
<path d="M65.8994 35.8047C65.5748 35.4327 65.2884 35.0607 64.9638 34.6692C65.6512 34.6692 66.3386 34.6692 67.0261 34.6692C67.4159 35.1149 67.0961 35.8047 66.504 35.8047C66.3025 35.8047 66.101 35.8047 65.8994 35.8047ZM54.4993 35.8047C54.232 35.4327 54.0028 35.0607 53.7355 34.6692C57.4782 34.6692 61.221 34.6692 64.9638 34.6692C65.2884 35.0607 65.5748 35.4327 65.8994 35.8047C62.1058 35.8047 58.3057 35.8047 54.4993 35.8047ZM18.7904 35.8047C18.7331 35.4327 18.5803 35.0607 18.5421 34.6887C30.2669 34.6691 42.0107 34.6692 53.7355 34.6692C54.0028 35.0607 54.232 35.4327 54.4993 35.8047C42.5963 35.8047 30.6934 35.8047 18.7904 35.8047ZM5.40433 35.8047C5.34704 35.4523 5.27066 35.0803 5.25156 34.7279C9.66266 34.4734 14.131 34.6887 18.5421 34.6887C18.5803 35.0607 18.7331 35.4327 18.7904 35.8047C14.322 35.8047 9.85998 35.8047 5.40433 35.8047ZM0.929773 35.8047C-0.0702273 35.8047 1 35.8047 0 35.8047C1.5 34.5039 3.36109 34.8258 5.25156 34.7279C5.27066 35.0803 5.34704 35.4523 5.40433 35.8047C5.34067 35.8047 5.28339 35.8047 5.23247 35.8047C4.29648 35.8047 2.95978 35.8047 1.59983 35.8047C0.668302 35.8047 1.92977 35.8047 0.929773 35.8047ZM64.9638 34.6692C60.3044 29.1677 55.9124 23.6271 51.253 18.1256C51.8005 18.1126 52.3415 18.106 52.8762 18.106C57.5992 23.6271 62.3158 29.1481 67.0261 34.6692C66.3386 34.6692 65.6512 34.6692 64.9638 34.6692ZM53.7355 34.6692C49.84 29.2656 46.2308 23.6271 42.3926 18.1648C45.3461 18.1517 48.2996 18.1387 51.253 18.1256C55.9124 23.6271 60.3044 29.1677 64.9638 34.6692C61.221 34.6692 57.4782 34.6692 53.7355 34.6692ZM18.5421 34.6887C18.1984 31.8303 17.2627 28.8153 16.4989 26.0548C15.8497 23.7054 14.5893 20.8078 14.5702 18.3018C23.7935 18.2431 33.1121 18.2039 42.3926 18.1648C46.2308 23.6271 49.84 29.2656 53.7355 34.6692C42.0107 34.6692 30.2669 34.6691 18.5421 34.6887ZM5.25156 34.7279C4.96513 29.3047 4.31587 23.7445 4.41135 18.341C5.0606 18.3214 5.72895 18.3214 6.3782 18.3214C9.10889 18.3018 11.8396 18.3018 14.5702 18.3018C14.5893 20.8078 15.8497 23.7054 16.4989 26.0548C17.2627 28.8153 18.1984 31.8303 18.5421 34.6887C14.131 34.6887 9.66266 34.4734 5.25156 34.7279ZM0 35.8047C0 35.3047 0.019348 34.5321 0.019348 33.514C0.0193478 28.4498 0.0193475 23.3856 0.0193473 18.3214C0.935939 18.0865 2.08168 18.341 2.99827 18.341C3.4693 18.341 3.94033 18.341 4.41135 18.341C4.31587 23.7445 4.96513 29.3047 5.25156 34.7279C3.36109 34.8258 1.5 34.5039 0 35.8047ZM51.253 18.1256C50.9093 17.7145 56.7335 11.4886 57.2873 10.8621C59.7124 8.12117 62.0803 5.32143 64.5055 2.60006C65.1929 2.60006 65.8803 2.60006 66.5678 2.60006C62.0114 7.65869 57.4488 12.711 52.88 17.7569C52.7895 17.8568 52.782 18.0095 52.8762 18.106C52.3415 18.106 51.8005 18.1126 51.253 18.1256ZM42.3926 18.1648C42.068 17.6949 44.1876 15.3259 44.6077 14.719C45.5625 13.3681 46.4982 11.9976 47.4912 10.6663C49.458 8.0037 51.3103 5.22356 53.3536 2.61966C57.0709 2.60661 60.7882 2.60006 64.5055 2.60006C62.0803 5.32143 59.7124 8.12117 57.2873 10.8621C56.7335 11.4886 50.9093 17.7145 51.253 18.1256C48.2996 18.1387 45.3461 18.1517 42.3926 18.1648ZM14.5702 18.3018C14.5512 15.5609 15.6969 12.8982 16.4989 10.3335C17.2818 7.80791 17.7783 5.1844 18.4658 2.63924C30.1332 2.63924 41.7243 2.61966 53.3536 2.61966C51.3103 5.22356 49.458 8.0037 47.4912 10.6663C46.4982 11.9976 45.5625 13.3681 44.6077 14.719C44.1876 15.3259 42.068 17.6949 42.3926 18.1648C33.1121 18.2039 23.7935 18.2431 14.5702 18.3018ZM4.41135 18.341C4.31587 13.094 5.13699 7.86661 5.34704 2.61966C9.71995 2.61966 14.0929 2.63924 18.4658 2.63924C17.7783 5.1844 17.2818 7.80791 16.4989 10.3335C15.6969 12.8982 14.5512 15.5609 14.5702 18.3018C11.8396 18.3018 9.10889 18.3018 6.3782 18.3214C5.72895 18.3214 5.0606 18.3214 4.41135 18.341ZM0.0193473 18.3214C0.0193471 13.3224 0.0193469 8.32343 0.0193467 3.32447C0.0193466 2.48914 0.0193467 2.03881 0.0193467 1.19043C1.50881 2.36512 3.47566 2.61966 5.34704 2.61966C5.13699 7.86661 4.31587 13.094 4.41135 18.341C3.94033 18.341 3.4693 18.341 2.99827 18.341C2.08168 18.341 0.935939 18.0865 0.0193473 18.3214ZM64.5055 2.60006C64.9829 2.07145 65.4411 1.54285 65.8994 1.01424C66.7165 1.01424 67.1475 1.97385 66.5925 2.5734C66.5843 2.58229 66.576 2.59118 66.5678 2.60006C65.8803 2.60006 65.1929 2.60006 64.5055 2.60006ZM53.3536 2.61966C53.7737 2.07147 54.0983 1.54285 54.4993 1.01424C58.3057 1.01424 62.1058 1.01424 65.8994 1.01424C65.4411 1.54285 64.9829 2.07145 64.5055 2.60006C60.7882 2.60006 57.0709 2.60661 53.3536 2.61966ZM18.4658 2.63924C18.5994 2.09105 18.7331 1.56243 18.7904 1.01424C30.6934 1.01424 42.5963 1.01424 54.4993 1.01424C54.0983 1.54285 53.7737 2.07147 53.3536 2.61966C41.7243 2.61966 30.1332 2.63924 18.4658 2.63924ZM5.34704 2.61966C5.3725 2.08453 5.39159 1.54938 5.40432 1.01424C9.85998 1.01424 14.322 1.01424 18.7904 1.01424C18.7331 1.56243 18.5994 2.09105 18.4658 2.63924C14.0929 2.63924 9.71995 2.61966 5.34704 2.61966ZM0.0193467 1.19043C0.0193466 0.857929 0.288863 1.01424 0.621358 1.01424C0.810146 1.01424 1.04884 1.01424 1.52761 1.01424C2.78792 1.01424 4.29648 1.01424 5.23247 1.01424C5.28339 1.01424 5.34067 1.01424 5.40432 1.01424C5.39159 1.54938 5.3725 2.08453 5.34704 2.61966C3.47566 2.61966 1.50881 2.36512 0.0193467 1.19043Z" fill="url(#paint0_linear_93_23)"/>
<defs>
<linearGradient id="paint0_linear_93_23" x1="68" y1="35.8091" x2="14.3282" y2="19.0829" gradientUnits="userSpaceOnUse">
<stop stop-color="#962727"/>
<stop offset="1" stop-color="#E12626"/>
</linearGradient>
</defs>
</svg>
